# xmcd CD database file
#
# Track frame offsets:
#	150
#	52688
#	109454
#	154788
#	203168
#
# Disc length: 3557 seconds
#
# Revision: 0
# Processed by: cddbd v1.4PL0 Copyright (c) Steve Scherf et al.
# Submitted via: CDex 1.51
#
DISCID=3a0de305
DTITLE=Woody Shaw - Live Volume Three
DYEAR=1977
DGENRE=Jazz
TTITLE0=Ginseng People
TTITLE1=Teotiuacan
TTITLE2=Organ Grinder
TTITLE3=Little Red's Fantasy
TTITLE4=Seventh Avenue
EXTD=YEAR: 1977
EXTT0=
EXTT1=
EXTT2=
EXTT3=
EXTT4=
PLAYORDER=
